<?xml version="1.0" encoding="UTF-8"?>
<svg width="197px" height="29px" viewBox="0 0 197 29" version="1.1" xmlns="http://www.w3.org/2000/svg" xmlns:xlink="http://www.w3.org/1999/xlink">
    <!-- Generator: Sketch 50 (54983) - http://www.bohemiancoding.com/sketch -->
    <title>logo-full--light</title>
    <desc>Created with Sketch.</desc>
    <defs></defs>
    <g id="Symbols" stroke="none" stroke-width="1" fill="none" fill-rule="evenodd">
        <g id="top-bar-no-auth" transform="translate(-44.000000, -26.000000)">
            <g id="logo-full--light" transform="translate(44.000000, 26.000000)">
                <g id="Group-3-Copy">
                    <g id="Group-3" fill="#F0F0F0">
                        <path d="M29.373491,0.156531532 L31.2292112,0.156531532 C31.9444535,0.156531532 32.9271614,0.56621842 33.4344183,1.08579691 C33.4344183,1.08579691 44.6333166,12.3868715 44.6333166,14.4974662 C44.6333166,16.6080609 33.2137943,27.9294176 33.2137943,27.9294176 C32.7132305,28.4314352 31.7191082,28.8384009 31.0009392,28.8384009 L29.373491,28.8384009 C30.0865082,28.8384009 31.0346741,28.3882304 31.4822646,27.832917 C31.4822646,27.832917 41,16.1301629 41,14.4974662 C41,12.8647695 31.4822646,1.16201545 31.4822646,1.16201545 C31.0394154,0.611197898 30.090544,0.156531532 29.373491,0.156531532 Z" id="Combined-Shape"></path>
                        <path d="M0,5.13615014 C0,2.38598272 2.22641297,0.156531532 4.97886101,0.156531532 L27.3707739,0.156531532 C28.092462,0.156531532 28.9927772,0.65403871 29.3701566,1.25331506 C29.3701566,1.25331506 36.7199009,12.7732759 36.7199009,14.4974662 C36.7199009,16.2216565 29.3701566,27.7416174 29.3701566,27.7416174 C28.9876161,28.3473542 28.1046617,28.8384009 27.3707739,28.8384009 L4.97886101,28.8384009 C2.229112,28.8384009 0,26.6116492 0,23.8587823 L0,5.13615014 Z M9.26209656,23.1127501 C9.26209656,23.3831514 9.39307024,23.5986242 9.65502152,23.759175 C9.9169728,23.9197258 10.2253947,24 10.5802964,24 C10.9520982,24 11.26897,23.9197258 11.5309213,23.759175 C11.7928726,23.5986242 11.9238462,23.3831514 11.9238462,23.1127501 L11.9238462,16.0401009 L14.4841959,16.0401009 L18.1852955,23.2902001 C18.4556968,23.8141026 18.8105932,24.07605 19.2499954,24.07605 C19.6386973,24.07605 20.0062686,23.9324014 20.3527202,23.6451 C20.6991719,23.3577986 20.8723952,23.0451518 20.8723952,22.7071502 C20.8723952,22.5719495 20.8385955,22.4452008 20.7709952,22.3269002 L17.2219956,15.659851 C18.320501,15.3894497 19.1908422,14.8444302 19.8330453,14.0247762 C20.4752484,13.2051222 20.7963452,12.0770586 20.7963452,10.6405516 C20.7963452,7.19293477 18.8528649,5.46915221 14.9658459,5.46915221 L10.1493465,5.46915221 C9.89584522,5.46915221 9.68459736,5.55365135 9.51559653,5.72265218 C9.34659571,5.891653 9.26209656,6.09445095 9.26209656,6.33105211 L9.26209656,23.1127501 Z M11.9238462,13.8853512 L11.9238462,7.85205192 L14.9658459,7.85205192 C17.0614561,7.85205192 18.1092455,8.85759175 18.1092455,10.8687016 C18.1092455,12.8798114 17.0614561,13.8853512 14.9658459,13.8853512 L11.9238462,13.8853512 Z" id="Combined-Shape"></path>
                    </g>
                    <path d="M67.93,22.6270833 L67.93,8.28375 C67.93,8.08152677 68.0022215,7.90819517 68.1466667,7.76375 C68.2911118,7.61930483 68.4716656,7.54708333 68.6883333,7.54708333 L72.805,7.54708333 C76.1272388,7.54708333 77.7883333,9.02040193 77.7883333,11.9670833 C77.7883333,13.1948672 77.5138916,14.1590243 76.965,14.8595833 C76.4161084,15.5601424 75.6722269,16.0259711 74.7333333,16.2570833 L77.7666667,21.9554167 C77.8244447,22.0565283 77.8533333,22.1648605 77.8533333,22.2804167 C77.8533333,22.569307 77.7052793,22.8365265 77.4091667,23.0820833 C77.1130541,23.3276401 76.7988906,23.4504167 76.4666667,23.4504167 C76.0911092,23.4504167 75.7877789,23.22653 75.5566667,22.77875 L72.3933333,16.5820833 L70.205,16.5820833 L70.205,22.6270833 C70.205,22.8581956 70.0930567,23.0423604 69.8691667,23.1795833 C69.6452767,23.3168062 69.374446,23.3854167 69.0566667,23.3854167 C68.7533318,23.3854167 68.4897233,23.3168062 68.2658333,23.1795833 C68.0419433,23.0423604 67.93,22.8581956 67.93,22.6270833 Z M70.205,14.7404167 L72.805,14.7404167 C74.5961201,14.7404167 75.4916667,13.8809808 75.4916667,12.1620833 C75.4916667,10.4431859 74.5961201,9.58375 72.805,9.58375 L70.205,9.58375 L70.205,14.7404167 Z M82.9985294,22.6270833 L82.9985294,8.28375 C82.9985294,8.03819322 83.1104728,7.85402839 83.3343628,7.73125 C83.5582528,7.60847161 83.8290834,7.54708333 84.1468628,7.54708333 C84.4646421,7.54708333 84.7354728,7.60847161 84.9593628,7.73125 C85.1832528,7.85402839 85.2951961,8.03819322 85.2951961,8.28375 L85.2951961,22.6270833 C85.2951961,22.8581956 85.1832528,23.0423604 84.9593628,23.1795833 C84.7354728,23.3168062 84.4646421,23.3854167 84.1468628,23.3854167 C83.8435279,23.3854167 83.5763084,23.3168062 83.3451961,23.1795833 C83.1140838,23.0423604 82.9985294,22.8581956 82.9985294,22.6270833 Z M90.9603922,18.68375 L90.9603922,12.37875 C90.9603922,10.7176306 91.4045544,9.49708723 92.2928922,8.71708333 C93.18123,7.93707943 94.3403851,7.54708333 95.7703922,7.54708333 C97.2437329,7.54708333 98.4317766,7.91180191 99.3345589,8.64125 C100.237341,9.37069809 100.688726,10.3131887 100.688726,11.46875 C100.688726,11.9309745 100.60206,12.2451381 100.428726,12.41125 C100.255391,12.5773619 99.9592832,12.6604167 99.5403922,12.6604167 C98.7892773,12.6604167 98.4065034,12.4076414 98.3920589,11.9020833 C98.3053918,10.3565201 97.4604002,9.58375 95.8570589,9.58375 C94.1237169,9.58375 93.2570589,10.5154074 93.2570589,12.37875 L93.2570589,18.68375 C93.2570589,20.5470926 94.1381612,21.47875 95.9003922,21.47875 C96.4203948,21.47875 96.8537238,21.4029174 97.2003922,21.25125 C97.5470606,21.0995826 97.7962248,20.879307 97.9478922,20.5904167 C98.0995596,20.3015263 98.2042808,20.0487511 98.2620589,19.8320833 C98.3198369,19.6154156 98.3631698,19.348196 98.3920589,19.0304167 C98.4353924,18.5248586 98.8109442,18.2720833 99.5187255,18.2720833 C99.9376165,18.2720833 100.237336,18.3551381 100.417892,18.52125 C100.598449,18.6873619 100.688726,19.0015255 100.688726,19.46375 C100.688726,20.6626449 100.23373,21.6376351 99.3237255,22.38875 C98.413721,23.1398649 97.2220662,23.5154167 95.7487255,23.5154167 C94.3187184,23.5154167 93.1631744,23.1254206 92.2820589,22.3454167 C91.4009434,21.5654128 90.9603922,20.3448694 90.9603922,18.68375 Z M105.638922,18.68375 L105.638922,12.37875 C105.638922,10.7176306 106.079473,9.49708723 106.960588,8.71708333 C107.841704,7.93707943 109.018914,7.54708333 110.492255,7.54708333 C111.965596,7.54708333 113.146417,7.93707943 114.034755,8.71708333 C114.923093,9.49708723 115.367255,10.7176306 115.367255,12.37875 L115.367255,18.68375 C115.367255,20.3448694 114.923093,21.5654128 114.034755,22.3454167 C113.146417,23.1254206 111.965596,23.5154167 110.492255,23.5154167 C109.018914,23.5154167 107.841704,23.1254206 106.960588,22.3454167 C106.079473,21.5654128 105.638922,20.3448694 105.638922,18.68375 Z M107.935588,18.68375 C107.935588,20.5470927 108.787802,21.47875 110.492255,21.47875 C111.315592,21.47875 111.951142,21.2476412 112.398922,20.7854167 C112.846702,20.3231921 113.070588,19.6226436 113.070588,18.68375 L113.070588,12.37875 C113.070588,11.4398564 112.846702,10.7393079 112.398922,10.2770833 C111.951142,9.8148588 111.315592,9.58375 110.492255,9.58375 C108.787802,9.58375 107.935588,10.5154074 107.935588,12.37875 L107.935588,18.68375 Z M120.859118,18.68375 L120.859118,12.37875 C120.859118,10.7176306 121.30328,9.49708723 122.191618,8.71708333 C123.079956,7.93707943 124.239111,7.54708333 125.669118,7.54708333 C127.142458,7.54708333 128.330502,7.91180191 129.233284,8.64125 C130.136067,9.37069809 130.587451,10.3131887 130.587451,11.46875 C130.587451,11.9309745 130.500785,12.2451381 130.327451,12.41125 C130.154117,12.5773619 129.858009,12.6604167 129.439118,12.6604167 C128.688003,12.6604167 128.305229,12.4076414 128.290784,11.9020833 C128.204117,10.3565201 127.359126,9.58375 125.755784,9.58375 C124.022442,9.58375 123.155784,10.5154074 123.155784,12.37875 L123.155784,18.68375 C123.155784,20.5470926 124.036887,21.47875 125.799118,21.47875 C126.31912,21.47875 126.752449,21.4029174 127.099118,21.25125 C127.445786,21.0995826 127.69495,20.879307 127.846618,20.5904167 C127.998285,20.3015263 128.103006,20.0487511 128.160784,19.8320833 C128.218562,19.6154156 128.261895,19.348196 128.290784,19.0304167 C128.334118,18.5248586 128.70967,18.2720833 129.417451,18.2720833 C129.836342,18.2720833 130.136061,18.3551381 130.316618,18.52125 C130.497174,18.6873619 130.587451,19.0015255 130.587451,19.46375 C130.587451,20.6626449 130.132456,21.6376351 129.222451,22.38875 C128.312447,23.1398649 127.120792,23.5154167 125.647451,23.5154167 C124.217444,23.5154167 123.0619,23.1254206 122.180784,22.3454167 C121.299669,21.5654128 120.859118,20.3448694 120.859118,18.68375 Z M135.689314,22.6270833 L135.689314,8.28375 C135.689314,8.03819322 135.801257,7.85402839 136.025147,7.73125 C136.249037,7.60847161 136.519868,7.54708333 136.837647,7.54708333 C137.155427,7.54708333 137.426257,7.60847161 137.650147,7.73125 C137.874037,7.85402839 137.985981,8.03819322 137.985981,8.28375 L137.985981,14.26375 L143.380981,14.26375 L143.380981,8.28375 C143.380981,8.03819322 143.492924,7.85402839 143.716814,7.73125 C143.940704,7.60847161 144.211534,7.54708333 144.529314,7.54708333 C144.847093,7.54708333 145.117924,7.60847161 145.341814,7.73125 C145.565704,7.85402839 145.677647,8.03819322 145.677647,8.28375 L145.677647,22.6270833 C145.677647,22.8581956 145.565704,23.0423604 145.341814,23.1795833 C145.117924,23.3168062 144.847093,23.3854167 144.529314,23.3854167 C144.225979,23.3854167 143.958759,23.3168062 143.727647,23.1795833 C143.496535,23.0423604 143.380981,22.8581956 143.380981,22.6270833 L143.380981,16.08375 L137.985981,16.08375 L137.985981,22.6270833 C137.985981,22.8581956 137.874037,23.0423604 137.650147,23.1795833 C137.426257,23.3168062 137.155427,23.3854167 136.837647,23.3854167 C136.534312,23.3854167 136.267093,23.3168062 136.035981,23.1795833 C135.804868,23.0423604 135.689314,22.8581956 135.689314,22.6270833 Z M151.49451,22.6270833 L151.49451,8.30541667 C151.49451,8.0743044 151.59562,7.89013957 151.797843,7.75291667 C152.000067,7.61569376 152.238397,7.54708333 152.512843,7.54708333 L160.226177,7.54708333 C160.471733,7.54708333 160.659509,7.64819343 160.78951,7.85041667 C160.919511,8.0526399 160.98451,8.2837487 160.98451,8.54375 C160.98451,8.83264033 160.9159,9.07819343 160.778677,9.28041667 C160.641454,9.4826399 160.457289,9.58375 160.226177,9.58375 L153.791177,9.58375 L153.791177,14.5454167 L157.127843,14.5454167 C157.358956,14.5454167 157.54312,14.6356935 157.680343,14.81625 C157.817566,14.9968065 157.886177,15.217082 157.886177,15.4770833 C157.886177,15.7081956 157.821177,15.9140269 157.691177,16.0945833 C157.561176,16.2751398 157.3734,16.3654167 157.127843,16.3654167 L153.791177,16.3654167 L153.791177,21.34875 L160.226177,21.34875 C160.457289,21.34875 160.641454,21.4498601 160.778677,21.6520833 C160.9159,21.8543066 160.98451,22.0998597 160.98451,22.38875 C160.98451,22.6487513 160.919511,22.8798601 160.78951,23.0820833 C160.659509,23.2843066 160.471733,23.3854167 160.226177,23.3854167 L152.512843,23.3854167 C152.238397,23.3854167 152.000067,23.3168062 151.797843,23.1795833 C151.59562,23.0423604 151.49451,22.8581956 151.49451,22.6270833 Z M164.656373,8.58708333 C164.656373,8.31263752 164.721372,8.07069549 164.851373,7.86125 C164.981373,7.65180451 165.169149,7.54708333 165.414706,7.54708333 L174.406373,7.54708333 C174.651929,7.54708333 174.839705,7.64819343 174.969706,7.85041667 C175.099707,8.0526399 175.164706,8.29097085 175.164706,8.56541667 C175.164706,8.86875152 175.096096,9.12513784 174.958873,9.33458333 C174.82165,9.54402882 174.637485,9.64875 174.406373,9.64875 L171.069706,9.64875 L171.069706,22.6270833 C171.069706,22.8581956 170.954152,23.0423604 170.723039,23.1795833 C170.491927,23.3168062 170.224708,23.3854167 169.921373,23.3854167 C169.603593,23.3854167 169.332763,23.3168062 169.108873,23.1795833 C168.884983,23.0423604 168.773039,22.8581956 168.773039,22.6270833 L168.773039,9.64875 L165.414706,9.64875 C165.183594,9.64875 164.999429,9.54402882 164.862206,9.33458333 C164.724983,9.12513784 164.656373,8.87597367 164.656373,8.58708333 Z" id="Combined-Shape" fill="#F0F0F0"></path>
                    <path d="M182.792917,21.5510417 L187.364583,16.19125 L182.792917,10.4929167 C182.590693,10.334027 182.489583,10.1245846 182.489583,9.86458333 C182.489583,9.575693 182.601527,9.32291775 182.825417,9.10625 C183.049307,8.88958225 183.284027,8.78125 183.529583,8.78125 C183.659584,8.78125 183.760694,8.8101386 183.832917,8.86791667 L189.53125,15.3029167 C189.849029,15.5195844 190.007917,15.8156926 190.007917,16.19125 C190.007917,16.5668074 189.849029,16.8556934 189.53125,17.0579167 L183.832917,23.154375 C183.760694,23.2121531 183.659584,23.2410417 183.529583,23.2410417 C183.284027,23.2410417 183.049307,23.1363205 182.825417,22.926875 C182.601527,22.7174295 182.489583,22.4682653 182.489583,22.179375 C182.489583,21.8904847 182.590693,21.6810423 182.792917,21.5510417 Z" id="&gt;" fill="#FFFFFF"></path>
                    <path d="M189.56375,21.5510417 L194.135417,16.19125 L189.56375,10.4929167 C189.361527,10.334027 189.260417,10.1245846 189.260417,9.86458333 C189.260417,9.575693 189.37236,9.32291775 189.59625,9.10625 C189.82014,8.88958225 190.05486,8.78125 190.300417,8.78125 C190.430417,8.78125 190.531527,8.8101386 190.60375,8.86791667 L196.302083,15.3029167 C196.619863,15.5195844 196.77875,15.8156926 196.77875,16.19125 C196.77875,16.5668074 196.619863,16.8556934 196.302083,17.0579167 L190.60375,23.154375 C190.531527,23.2121531 190.430417,23.2410417 190.300417,23.2410417 C190.05486,23.2410417 189.82014,23.1363205 189.59625,22.926875 C189.37236,22.7174295 189.260417,22.4682653 189.260417,22.179375 C189.260417,21.8904847 189.361527,21.6810423 189.56375,21.5510417 Z" id="&gt;-copy" fill="#FFFFFF"></path>
                </g>
                <g id="Group-2" transform="translate(67.500000, 7.333333)"></g>
            </g>
        </g>
    </g>
</svg>